Coordinates
version=1
nRows=27
nColumns=38
inDegrees=no

Units are S.I. units (second, meters, Newtons, ...)
If the header above contains a line with 'inDegrees', this indicates whether rotational values are in degrees (yes) or radians (no).

endheader
time	pelvis_tilt	pelvis_list	pelvis_rotation	pelvis_tx	pelvis_ty	pelvis_tz	hip_flexion_r	hip_adduction_r	hip_rotation_r	knee_angle_r	ankle_angle_r	subtalar_angle_r	mtp_angle_r	hip_flexion_l	hip_adduction_l	hip_rotation_l	knee_angle_l	ankle_angle_l	subtalar_angle_l	mtp_angle_l	lumbar_extension	lumbar_bending	lumbar_rotation	arm_flex_r	arm_add_r	arm_rot_r	elbow_flex_r	pro_sup_r	wrist_flex_r	wrist_dev_r	arm_flex_l	arm_add_l	arm_rot_l	elbow_flex_l	pro_sup_l	wrist_flex_l	wrist_dev_l
0.51	3.11685	1.41998	-1.59549	0.92974	-0.175739	0.915666	0.360259	-0.0892912	-0.450871	0.235234	0.183822	0	0	-0.416655	0.0448121	-0.192398	0.112071	0.210828	0	0	-0.095954	-0.022147	0.114565	0.317718	-0.40145	-0.256248	1.53739	1.5708	0	0	0.461827	-0.516638	0.0725635	1.68891	1.00379	0	0
0.52	3.11912	1.42492	-1.59611	0.932067	-0.162457	0.912472	0.35367	-0.0843674	-0.44934	0.231256	0.177225	0	0	-0.425131	0.041299	-0.195289	0.117841	0.219967	0	0	-0.0860649	-0.0222683	0.113927	0.317194	-0.40247	-0.253842	1.53605	1.5708	0	0	0.461662	-0.518024	0.0771935	1.68465	1.00415	0	0
0.53	3.10902	1.42694	-1.58196	0.933971	-0.148775	0.909709	0.343742	-0.081367	-0.451605	0.239247	0.172359	0	0	-0.434991	0.0347356	-0.196838	0.1276	0.230047	0	0	-0.0789525	-0.0198139	0.111511	0.316106	-0.404542	-0.252336	1.5358	1.5708	0	0	0.46176	-0.51973	0.084426	1.6793	1.00407	0	0
0.54	3.08572	1.4261	-1.55299	0.935809	-0.13488	0.907417	0.330207	-0.0780942	-0.460128	0.250339	0.170079	0	0	-0.445722	0.0248231	-0.197285	0.14164	0.239052	0	0	-0.0752545	-0.0148924	0.107206	0.315472	-0.406482	-0.251506	1.53667	1.5708	0	0	0.460838	-0.520738	0.0894871	1.67495	1.00255	0	0
0.55	3.05341	1.42224	-1.51541	0.937682	-0.120374	0.905668	0.313087	-0.0732898	-0.488019	0.254463	0.16715	0	0	-0.45747	0.0125349	-0.203539	0.159523	0.247455	0	0	-0.0742164	-0.0079347	0.103173	0.315329	-0.407774	-0.252294	1.53753	1.5708	0	0	0.45661	-0.520428	0.0898734	1.67424	1.00075	0	0
0.56	2.99614	1.41761	-1.45357	0.940168	-0.106754	0.904509	0.297025	-0.0609341	-0.497513	0.250377	0.131958	0	0	-0.464887	-0.00569082	-0.208989	0.185408	0.252464	0	0	-0.0767321	0.00351178	0.0976016	0.318098	-0.407338	-0.251263	1.53823	1.5708	0	0	0.448426	-0.512077	0.0250744	1.675	0.539401	0	0
0.57	2.928	1.41262	-1.38908	0.942766	-0.0924702	0.904133	0.277243	-0.0539674	-0.519335	0.24042	0.0877181	0	0	-0.470616	-0.0259385	-0.22394	0.216159	0.257108	0	0	-0.0776618	0.0179091	0.102462	0.316867	-0.407682	-0.256947	1.53903	1.5708	0	0	0.448731	-0.518397	0.0912911	1.66926	0.9973	0	0
0.58	2.86685	1.40572	-1.32759	0.945788	-0.0788377	0.904043	0.267242	-0.0416844	-0.524312	0.248889	0.035197	0	0	-0.471956	-0.0469975	-0.233862	0.254927	0.254217	0	0	-0.082306	0.0312818	0.102948	0.317359	-0.406178	-0.259674	1.54001	1.5708	0	0	0.444521	-0.515142	0.0900632	1.66417	1.01214	0	0
0.59	2.8228	1.39868	-1.28395	0.948924	-0.0651184	0.90441	0.261132	-0.0338724	-0.526266	0.270548	0.000593062	0	0	-0.470665	-0.0664143	-0.24223	0.297891	0.245732	0	0	-0.0871583	0.0418044	0.104263	0.316657	-0.404237	-0.262363	1.54099	1.5708	0	0	0.438532	-0.512323	0.0834107	1.66642	1.00916	0	0
0.6	2.79085	1.3909	-1.25235	0.952112	-0.0512847	0.905321	0.255293	-0.0280947	-0.522972	0.298769	-0.0168124	0	0	-0.465778	-0.0862667	-0.251706	0.348314	0.230352	0	0	-0.0927333	0.0503684	0.105605	0.315002	-0.402399	-0.264285	1.54187	1.5708	0	0	0.432177	-0.509913	0.0776175	1.67037	1.00873	0	0
0.61	2.76918	1.38311	-1.23184	0.955474	-0.0375011	0.906827	0.248788	-0.0239461	-0.515177	0.329814	-0.0208277	0	0	-0.45513	-0.106585	-0.261397	0.408588	0.203987	0	0	-0.0987259	0.0568034	0.108026	0.312477	-0.400919	-0.265102	1.54228	1.5708	0	0	0.427581	-0.507621	0.0763758	1.66976	1.01312	0	0
0.62	2.75455	1.37525	-1.22012	0.959125	-0.0240357	0.908897	0.241023	-0.0203144	-0.506503	0.359875	-0.0169604	0	0	-0.437489	-0.127864	-0.271605	0.478668	0.164244	0	0	-0.106054	0.061294	0.112591	0.309828	-0.400283	-0.264847	1.54251	1.5708	0	0	0.423465	-0.504595	0.0699335	1.67256	1.01351	0	0
0.63	2.74587	1.36808	-1.21519	0.962915	-0.0110603	0.911362	0.23208	-0.017322	-0.499679	0.386364	-0.0100183	0	0	-0.412282	-0.149459	-0.278477	0.554915	0.105762	0	0	-0.11411	0.0639192	0.118277	0.307757	-0.400993	-0.262458	1.54235	1.5708	0	0	0.421219	-0.502163	0.0661929	1.67247	1.01056	0	0
0.64	2.74016	1.36232	-1.21274	0.966676	0.00144799	0.913872	0.222084	-0.014179	-0.494597	0.406786	-0.00386367	0	0	-0.379409	-0.170722	-0.278439	0.63493	0.0328659	0	0	-0.121623	0.065037	0.12383	0.306143	-0.403318	-0.258284	1.54226	1.5708	0	0	0.421105	-0.501668	0.0667069	1.67167	1.00948	0	0
0.65	2.73456	1.35876	-1.209	0.970319	0.0136493	0.916059	0.212019	-0.0105672	-0.4914	0.421807	0.00213619	0	0	-0.339345	-0.191139	-0.270978	0.716262	-0.0531814	0	0	-0.127886	0.0655435	0.125666	0.307943	-0.406175	-0.249333	1.54221	1.5708	0	0	0.415776	-0.494394	0.000300929	1.68316	0.588148	0	0
0.66	2.72781	1.35704	-1.20237	0.973681	0.0256471	0.917786	0.201511	-0.00591888	-0.489542	0.431649	0.00834982	0	0	-0.294253	-0.209914	-0.256923	0.796629	-0.135304	0	0	-0.130353	0.0649931	0.130866	0.305075	-0.411749	-0.246783	1.5431	1.5708	0	0	0.42552	-0.505164	0.0704911	1.67717	1.00919	0	0
0.67	2.73765	1.35545	-1.20672	0.977327	0.0372517	0.919059	0.192217	0.0055493	-0.479504	0.440579	0.00862718	0	0	-0.248672	-0.231095	-0.237722	0.872292	-0.194428	0	0	-0.135108	0.0599049	0.130689	0.305325	-0.416207	-0.242175	1.54357	1.5708	0	0	0.432662	-0.507883	0.0749397	1.67743	1.01116	0	0
0.68	2.74327	1.35417	-1.20783	0.979917	0.0487525	0.920345	0.177986	0.00859223	-0.479785	0.443925	0.0162921	0	0	-0.201677	-0.242678	-0.21259	0.944991	-0.23018	0	0	-0.139685	0.0576627	0.130558	0.306641	-0.421359	-0.240064	1.54361	1.5708	0	0	0.440158	-0.509716	0.0810181	1.6753	1.0099	0	0
0.69	2.75878	1.35262	-1.21874	0.982155	0.0601804	0.921836	0.16216	0.00947644	-0.478999	0.445607	0.0238882	0	0	-0.156925	-0.246841	-0.187751	1.01055	-0.236683	0	0	-0.145482	0.0538838	0.130685	0.307736	-0.425487	-0.240305	1.54327	1.5708	0	0	0.447268	-0.510558	0.0866167	1.67473	1.00702	0	0
0.7	2.78303	1.35119	-1.24126	0.984326	0.0717522	0.923728	0.145289	0.00842594	-0.474598	0.445762	0.0314058	0	0	-0.115482	-0.243596	-0.16566	1.06986	-0.222396	0	0	-0.151662	0.0484673	0.13381	0.307966	-0.427556	-0.243609	1.54249	1.5708	0	0	0.451947	-0.509629	0.0900249	1.67616	1.00459	0	0
0.71	2.81789	1.34846	-1.27407	0.986109	0.0830121	0.926094	0.125956	0.00465075	-0.470004	0.444905	0.0382047	0	0	-0.0763787	-0.234315	-0.14248	1.12639	-0.189984	0	0	-0.160678	0.0415365	0.13676	0.308949	-0.427824	-0.24936	1.54111	1.5708	0	0	0.456246	-0.50709	0.0926181	1.67726	1.00287	0	0
0.72	2.84252	1.34622	-1.29953	0.987021	0.0943951	0.928804	0.103341	-0.00595606	-0.473894	0.440508	0.0498603	0	0	-0.0387088	-0.216931	-0.122398	1.17925	-0.148131	0	0	-0.168743	0.0387742	0.138535	0.312804	-0.426712	-0.254629	1.53864	1.5708	0	0	0.450513	-0.495121	0.0255031	1.691	0.576735	0	0
0.73	2.87021	1.3451	-1.32945	0.98901	0.105886	0.93141	0.0844041	-0.00808867	-0.46666	0.43592	0.0542085	0	0	-0.00305182	-0.207025	-0.108413	1.22177	-0.106133	0	0	-0.172961	0.0324615	0.147002	0.31016	-0.426202	-0.264915	1.53712	1.5708	0	0	0.457088	-0.4986	0.0917876	1.68217	0.990684	0	0
0.74	2.89182	1.34595	-1.35448	0.991056	0.117465	0.933861	0.066972	-0.00967765	-0.460734	0.430103	0.0594904	0	0	0.0325807	-0.198385	-0.099591	1.25529	-0.0740332	0	0	-0.174364	0.027285	0.153882	0.309397	-0.425443	-0.271521	1.53534	1.5708	0	0	0.455208	-0.49446	0.0916695	1.6815	1.00471	0	0
0.75	2.91241	1.34787	-1.37866	0.993033	0.128895	0.936238	0.0500869	-0.011855	-0.45729	0.423014	0.0652803	0	0	0.0673016	-0.190114	-0.0944186	1.28064	-0.0507613	0	0	-0.174089	0.0220398	0.16089	0.308033	-0.425728	-0.276755	1.53323	1.5708	0	0	0.453746	-0.491084	0.0931763	1.68041	1.01804	0	0
0.76	2.93352	1.35034	-1.40385	0.994989	0.14014	0.938573	0.033735	-0.014648	-0.455038	0.415166	0.0711501	0	0	0.100568	-0.182489	-0.0932386	1.29899	-0.0341135	0	0	-0.172973	0.016495	0.168045	0.306771	-0.427031	-0.279536	1.53067	1.5708	0	0	0.451585	-0.487856	0.0902951	1.68306	1.01236	0	0
0.77	2.95478	1.35357	-1.42976	0.996947	0.151262	0.940808	0.0185037	-0.0177476	-0.452846	0.406845	0.0762636	0	0	0.132873	-0.175891	-0.0957663	1.31136	-0.0192049	0	0	-0.170623	0.0107651	0.175887	0.305206	-0.42951	-0.28053	1.52779	1.5708	0	0	0.449742	-0.485376	0.0897404	1.68372	1.00772	0	0
